<?xml version="1.0" encoding="UTF-8" standalone="no"?>
<!-- Created with Inkscape (http://www.inkscape.org/) -->

<svg
   xmlns:dc="http://purl.org/dc/elements/1.1/"
   xmlns:cc="http://creativecommons.org/ns#"
   xmlns:rdf="http://www.w3.org/1999/02/22-rdf-syntax-ns#"
   xmlns:svg="http://www.w3.org/2000/svg"
   xmlns="http://www.w3.org/2000/svg"
   xmlns:sodipodi="http://sodipodi.sourceforge.net/DTD/sodipodi-0.dtd"
   xmlns:inkscape="http://www.inkscape.org/namespaces/inkscape"
   width="744.09448819"
   height="1052.3622047"
   id="svg2"
   version="1.1"
   inkscape:version="0.48.4 r9939"
   sodipodi:docname="icon-m-low-power-mode-livescores.svg"
   inkscape:export-filename="/home/roland/Projects/nl-live-scores/nl-live-scores/NLLiveScores/icons/NLLiveScores64.png"
   inkscape:export-xdpi="9.2307692"
   inkscape:export-ydpi="9.2307692">
  <defs
     id="defs4" />
  <sodipodi:namedview
     id="base"
     pagecolor="#000000"
     bordercolor="#666666"
     borderopacity="1.0"
     inkscape:pageopacity="0.49803922"
     inkscape:pageshadow="2"
     inkscape:zoom="0.98994949"
     inkscape:cx="231.26941"
     inkscape:cy="430.34045"
     inkscape:document-units="px"
     inkscape:current-layer="layer4"
     showgrid="true"
     objecttolerance="20"
     inkscape:window-width="1920"
     inkscape:window-height="1041"
     inkscape:window-x="1366"
     inkscape:window-y="0"
     inkscape:window-maximized="1">
    <inkscape:grid
       type="xygrid"
       id="grid2985"
       empspacing="5"
       visible="true"
       enabled="true"
       snapvisiblegridlinesonly="true" />
  </sodipodi:namedview>
  <metadata
     id="metadata7">
    <rdf:RDF>
      <cc:Work
         rdf:about="">
        <dc:format>image/svg+xml</dc:format>
        <dc:type
           rdf:resource="http://purl.org/dc/dcmitype/StillImage" />
        <dc:title></dc:title>
      </cc:Work>
    </rdf:RDF>
  </metadata>
  <g
     inkscape:label="Bounding Box"
     inkscape:groupmode="layer"
     id="layer1"
     sodipodi:insensitive="true"
     style="display:none">
    <rect
       style="fill:none;stroke:#000000;stroke-width:2;stroke-linecap:butt;stroke-linejoin:miter;stroke-miterlimit:4;stroke-opacity:1;stroke-dasharray:none"
       id="rect3074"
       width="400"
       height="400"
       x="160"
       y="522.36218" />
  </g>
  <g
     inkscape:groupmode="layer"
     id="layer2"
     inkscape:label="Icon Size 78x78"
     sodipodi:insensitive="true"
     style="display:none">
    <rect
       style="fill:none;stroke-width:4;stroke-miterlimit:4;stroke-dasharray:none"
       id="rect3896"
       width="330"
       height="270"
       x="180"
       y="542.36218" />
    <rect
       style="fill:none;stroke-width:4;stroke-miterlimit:4;stroke-dasharray:none"
       id="rect3898"
       width="350"
       height="370"
       x="180"
       y="542.36218" />
    <rect
       style="fill:none;stroke:#000000;stroke-width:1.5;stroke-miterlimit:4;stroke-opacity:1;stroke-dasharray:none"
       id="rect3900"
       width="390"
       height="390"
       x="165"
       y="527.36218" />
  </g>
  <g
     inkscape:groupmode="layer"
     id="layer3"
     inkscape:label="Icon Background" />
  <g
     inkscape:groupmode="layer"
     id="layer5"
     inkscape:label="Glyp Bounding Box 54x54"
     style="display:none"
     sodipodi:insensitive="true">
    <rect
       style="fill:none;stroke:#000000;stroke-width:1;stroke-miterlimit:4;stroke-opacity:1;stroke-dasharray:none"
       id="rect3948"
       width="270"
       height="270"
       x="225"
       y="587.36218" />
  </g>
  <g
     inkscape:groupmode="layer"
     id="layer4"
     inkscape:label="Glyph">
    <g
       id="g3014">
      <path
         style="fill:#ffffff;fill-opacity:1;stroke:none"
         d="M 313.34375 527.375 C 231.16267 527.375 165 593.53767 165 675.71875 L 165 769.03125 C 165 851.21233 231.16267 917.375 313.34375 917.375 L 406.65625 917.375 C 488.83733 917.375 555 851.21233 555 769.03125 L 555 675.71875 C 555 593.53767 488.83733 527.375 406.65625 527.375 L 313.34375 527.375 z M 419.15625 625.0625 C 419.15625 625.0625 268.21875 695.51695 268.21875 719 C 268.21875 729.06417 281.61403 729.0625 284.96875 729.0625 C 352.06318 729.0625 425.89029 672.03624 459.4375 641.84375 C 459.4375 641.84375 494.67184 707.88444 492.96875 712.3125 C 476.19514 755.92388 365.49138 819.65625 291.6875 819.65625 C 244.7214 819.65625 239.59211 767.56086 254.78125 782.75 C 268.20013 796.16889 274.98255 798.28843 288.34375 799.53125 C 305.45263 801.12266 311.82014 799.51097 328.59375 796.15625 C 349.39886 791.99525 442.6343 745.85808 449.34375 722.375 C 450.64709 717.81325 446.0017 708.93917 435.9375 698.875 C 432.58278 695.52028 349.67778 750.4969 311.8125 755.90625 C 288.32945 759.26097 217.87334 769.33944 227.9375 732.4375 C 238.00167 695.53556 341.99766 625.0625 419.15625 625.0625 z "
         id="rect4039" />
    </g>
  </g>
</svg>
